<?xml version="1.0" encoding="utf-8" standalone="no"?>
<!DOCTYPE svg PUBLIC "-//W3C//DTD SVG 1.1//EN"
  "http://www.w3.org/Graphics/SVG/1.1/DTD/svg11.dtd">
<svg xmlns:xlink="http://www.w3.org/1999/xlink" width="643.421875pt" height="650.564647pt" viewBox="0 0 643.421875 650.564647" xmlns="http://www.w3.org/2000/svg" version="1.1">
 <metadata>
  <rdf:RDF xmlns:dc="http://purl.org/dc/elements/1.1/" xmlns:cc="http://creativecommons.org/ns#" xmlns:rdf="http://www.w3.org/1999/02/22-rdf-syntax-ns#">
   <cc:Work>
    <dc:type rdf:resource="http://purl.org/dc/dcmitype/StillImage"/>
    <dc:date>2024-10-10T08:36:11.456496</dc:date>
    <dc:format>image/svg+xml</dc:format>
    <dc:creator>
     <cc:Agent>
      <dc:title>Matplotlib v3.8.3, https://matplotlib.org/</dc:title>
     </cc:Agent>
    </dc:creator>
   </cc:Work>
  </rdf:RDF>
 </metadata>
 <defs>
  <style type="text/css">*{stroke-linejoin: round; stroke-linecap: butt}</style>
 </defs>
 <g id="figure_1">
  <g id="patch_1">
   <path d="M 0 650.564647 
L 643.421875 650.564647 
L 643.421875 0 
L 0 0 
z
" style="fill: #ffffff"/>
  </g>
  <g id="axes_1">
   <g id="patch_2">
    <path d="M 78.221875 569.198438 
L 636.221875 569.198438 
L 636.221875 14.798438 
L 78.221875 14.798438 
z
" style="fill: #ffffff"/>
   </g>
   <g id="matplotlib.axis_1">
    <g id="xtick_1">
     <g id="line2d_1">
      <defs>
       <path id="m7513577890" d="M 0 0 
L 0 3.5 
" style="stroke: #262626; stroke-width: 0.8"/>
      </defs>
      <g>
       <use xlink:href="#m7513577890" x="134.021875" y="569.198438" style="fill: #262626; stroke: #262626; stroke-width: 0.8"/>
      </g>
     </g>
     <g id="text_1">
      <!-- $\it{A. obliquus}$ -->
      <g style="fill: #262626" transform="translate(128.823169 590.481765) rotate(-340) scale(0.2 -0.2)">
       <defs>
        <path id="DejaVuSans-Oblique-41" d="M 2356 4666 
L 3072 4666 
L 3938 0 
L 3278 0 
L 3084 1197 
L 984 1197 
L 325 0 
L -341 0 
L 2356 4666 
z
M 2584 4044 
L 1275 1722 
L 2988 1722 
L 2584 4044 
z
" transform="scale(0.015625)"/>
        <path id="DejaVuSans-2e" d="M 684 794 
L 1344 794 
L 1344 0 
L 684 0 
L 684 794 
z
" transform="scale(0.015625)"/>
        <path id="DejaVuSans-Oblique-6f" d="M 1625 -91 
Q 1009 -91 651 289 
Q 294 669 294 1325 
Q 294 1706 417 2101 
Q 541 2497 738 2766 
Q 1047 3184 1428 3384 
Q 1809 3584 2291 3584 
Q 2888 3584 3255 3212 
Q 3622 2841 3622 2241 
Q 3622 1825 3500 1412 
Q 3378 1000 3181 728 
Q 2875 309 2494 109 
Q 2113 -91 1625 -91 
z
M 891 1344 
Q 891 869 1089 633 
Q 1288 397 1691 397 
Q 2269 397 2648 901 
Q 3028 1406 3028 2181 
Q 3028 2634 2825 2865 
Q 2622 3097 2228 3097 
Q 1903 3097 1650 2945 
Q 1397 2794 1197 2484 
Q 1050 2253 970 1956 
Q 891 1659 891 1344 
z
" transform="scale(0.015625)"/>
        <path id="DejaVuSans-Oblique-62" d="M 3169 2138 
Q 3169 2591 2961 2847 
Q 2753 3103 2388 3103 
Q 2122 3103 1889 2973 
Q 1656 2844 1484 2597 
Q 1303 2338 1198 1995 
Q 1094 1653 1094 1313 
Q 1094 881 1298 636 
Q 1503 391 1863 391 
Q 2134 391 2365 517 
Q 2597 644 2772 891 
Q 2950 1147 3059 1487 
Q 3169 1828 3169 2138 
z
M 1381 2969 
Q 1594 3256 1914 3420 
Q 2234 3584 2584 3584 
Q 3122 3584 3439 3221 
Q 3756 2859 3756 2241 
Q 3756 1734 3570 1259 
Q 3384 784 3041 416 
Q 2816 172 2522 40 
Q 2228 -91 1906 -91 
Q 1566 -91 1316 65 
Q 1066 222 909 531 
L 806 0 
L 231 0 
L 1178 4863 
L 1753 4863 
L 1381 2969 
z
" transform="scale(0.015625)"/>
        <path id="DejaVuSans-Oblique-6c" d="M 1172 4863 
L 1747 4863 
L 800 0 
L 225 0 
L 1172 4863 
z
" transform="scale(0.015625)"/>
        <path id="DejaVuSans-Oblique-69" d="M 1172 4863 
L 1747 4863 
L 1606 4134 
L 1031 4134 
L 1172 4863 
z
M 909 3500 
L 1484 3500 
L 800 0 
L 225 0 
L 909 3500 
z
" transform="scale(0.015625)"/>
        <path id="DejaVuSans-Oblique-71" d="M 2669 525 
Q 2438 222 2123 65 
Q 1809 -91 1428 -91 
Q 897 -91 595 267 
Q 294 625 294 1253 
Q 294 1759 480 2231 
Q 666 2703 1013 3078 
Q 1238 3322 1530 3453 
Q 1822 3584 2144 3584 
Q 2531 3584 2781 3431 
Q 3031 3278 3144 2969 
L 3244 3494 
L 3822 3494 
L 2888 -1319 
L 2309 -1319 
L 2669 525 
z
M 891 1338 
Q 891 875 1084 633 
Q 1278 391 1644 391 
Q 2188 391 2572 911 
Q 2956 1431 2956 2175 
Q 2956 2625 2757 2864 
Q 2559 3103 2188 3103 
Q 1916 3103 1684 2976 
Q 1453 2850 1281 2606 
Q 1100 2350 995 2006 
Q 891 1663 891 1338 
z
" transform="scale(0.015625)"/>
        <path id="DejaVuSans-Oblique-75" d="M 428 1388 
L 838 3500 
L 1416 3500 
L 1006 1409 
Q 975 1256 961 1147 
Q 947 1038 947 966 
Q 947 700 1109 554 
Q 1272 409 1569 409 
Q 2031 409 2368 721 
Q 2706 1034 2809 1563 
L 3194 3500 
L 3769 3500 
L 3091 0 
L 2516 0 
L 2631 550 
Q 2388 244 2052 76 
Q 1716 -91 1338 -91 
Q 878 -91 622 161 
Q 366 413 366 863 
Q 366 956 381 1097 
Q 397 1238 428 1388 
z
" transform="scale(0.015625)"/>
        <path id="DejaVuSans-Oblique-73" d="M 3200 3397 
L 3091 2853 
Q 2863 2978 2609 3040 
Q 2356 3103 2088 3103 
Q 1634 3103 1373 2948 
Q 1113 2794 1113 2528 
Q 1113 2219 1719 2053 
Q 1766 2041 1788 2034 
L 1972 1978 
Q 2547 1819 2739 1644 
Q 2931 1469 2931 1166 
Q 2931 609 2489 259 
Q 2047 -91 1331 -91 
Q 1053 -91 747 -37 
Q 441 16 72 128 
L 184 722 
Q 500 559 806 475 
Q 1113 391 1394 391 
Q 1816 391 2080 572 
Q 2344 753 2344 1031 
Q 2344 1331 1650 1516 
L 1591 1531 
L 1394 1581 
Q 956 1697 753 1886 
Q 550 2075 550 2369 
Q 550 2928 970 3256 
Q 1391 3584 2113 3584 
Q 2397 3584 2667 3537 
Q 2938 3491 3200 3397 
z
" transform="scale(0.015625)"/>
       </defs>
       <use xlink:href="#DejaVuSans-Oblique-41" transform="translate(0 0.015625)"/>
       <use xlink:href="#DejaVuSans-2e" transform="translate(68.408203 0.015625)"/>
       <use xlink:href="#DejaVuSans-Oblique-6f" transform="translate(119.677734 0.015625)"/>
       <use xlink:href="#DejaVuSans-Oblique-62" transform="translate(180.859375 0.015625)"/>
       <use xlink:href="#DejaVuSans-Oblique-6c" transform="translate(244.335938 0.015625)"/>
       <use xlink:href="#DejaVuSans-Oblique-69" transform="translate(272.119141 0.015625)"/>
       <use xlink:href="#DejaVuSans-Oblique-71" transform="translate(299.902344 0.015625)"/>
       <use xlink:href="#DejaVuSans-Oblique-75" transform="translate(363.378906 0.015625)"/>
       <use xlink:href="#DejaVuSans-Oblique-75" transform="translate(426.757812 0.015625)"/>
       <use xlink:href="#DejaVuSans-Oblique-73" transform="translate(490.136719 0.015625)"/>
      </g>
     </g>
    </g>
    <g id="xtick_2">
     <g id="line2d_2">
      <g>
       <use xlink:href="#m7513577890" x="245.621875" y="569.198438" style="fill: #262626; stroke: #262626; stroke-width: 0.8"/>
      </g>
     </g>
     <g id="text_2">
      <!-- $\it{C. reinhardtii}$ -->
      <g style="fill: #262626" transform="translate(240.424238 590.478829) rotate(-340) scale(0.2 -0.2)">
       <defs>
        <path id="DejaVuSans-Oblique-43" d="M 4447 4306 
L 4319 3641 
Q 4019 3944 3683 4091 
Q 3347 4238 2956 4238 
Q 2422 4238 2017 3981 
Q 1613 3725 1319 3200 
Q 1131 2863 1032 2486 
Q 934 2109 934 1728 
Q 934 1091 1264 756 
Q 1594 422 2222 422 
Q 2656 422 3056 561 
Q 3456 700 3834 978 
L 3688 231 
Q 3316 72 2936 -9 
Q 2556 -91 2175 -91 
Q 1278 -91 773 396 
Q 269 884 269 1753 
Q 269 2309 461 2846 
Q 653 3384 1013 3828 
Q 1394 4300 1883 4525 
Q 2372 4750 3022 4750 
Q 3422 4750 3780 4639 
Q 4138 4528 4447 4306 
z
" transform="scale(0.015625)"/>
        <path id="DejaVuSans-Oblique-72" d="M 2853 2969 
Q 2766 3016 2653 3041 
Q 2541 3066 2413 3066 
Q 1953 3066 1609 2717 
Q 1266 2369 1153 1784 
L 800 0 
L 225 0 
L 909 3500 
L 1484 3500 
L 1375 2956 
Q 1603 3259 1920 3421 
Q 2238 3584 2597 3584 
Q 2691 3584 2781 3573 
Q 2872 3563 2963 3538 
L 2853 2969 
z
" transform="scale(0.015625)"/>
        <path id="DejaVuSans-Oblique-65" d="M 3078 2063 
Q 3088 2113 3092 2166 
Q 3097 2219 3097 2272 
Q 3097 2653 2873 2875 
Q 2650 3097 2266 3097 
Q 1838 3097 1509 2826 
Q 1181 2556 1013 2059 
L 3078 2063 
z
M 3578 1613 
L 903 1613 
Q 884 1494 878 1425 
Q 872 1356 872 1306 
Q 872 872 1139 634 
Q 1406 397 1894 397 
Q 2269 397 2603 481 
Q 2938 566 3225 728 
L 3116 159 
Q 2806 34 2476 -28 
Q 2147 -91 1806 -91 
Q 1078 -91 686 257 
Q 294 606 294 1247 
Q 294 1794 489 2264 
Q 684 2734 1063 3103 
Q 1306 3334 1642 3459 
Q 1978 3584 2356 3584 
Q 2950 3584 3301 3228 
Q 3653 2872 3653 2272 
Q 3653 2128 3634 1964 
Q 3616 1800 3578 1613 
z
" transform="scale(0.015625)"/>
        <path id="DejaVuSans-Oblique-6e" d="M 3566 2113 
L 3156 0 
L 2578 0 
L 2988 2091 
Q 3016 2238 3031 2350 
Q 3047 2463 3047 2528 
Q 3047 2791 2881 2937 
Q 2716 3084 2419 3084 
Q 1956 3084 1622 2776 
Q 1288 2469 1184 1941 
L 800 0 
L 225 0 
L 903 3500 
L 1478 3500 
L 1363 2950 
Q 1603 3253 1940 3418 
Q 2278 3584 2650 3584 
Q 3113 3584 3367 3334 
Q 3622 3084 3622 2631 
Q 3622 2519 3608 2391 
Q 3594 2263 3566 2113 
z
" transform="scale(0.015625)"/>
        <path id="DejaVuSans-Oblique-68" d="M 3566 2113 
L 3156 0 
L 2578 0 
L 2988 2091 
Q 3016 2238 3031 2350 
Q 3047 2463 3047 2528 
Q 3047 2791 2881 2937 
Q 2716 3084 2419 3084 
Q 1956 3084 1617 2771 
Q 1278 2459 1178 1941 
L 800 0 
L 225 0 
L 1172 4863 
L 1747 4863 
L 1375 2950 
Q 1594 3244 1934 3414 
Q 2275 3584 2650 3584 
Q 3113 3584 3367 3334 
Q 3622 3084 3622 2631 
Q 3622 2519 3608 2391 
Q 3594 2263 3566 2113 
z
" transform="scale(0.015625)"/>
        <path id="DejaVuSans-Oblique-61" d="M 3438 1997 
L 3047 0 
L 2472 0 
L 2578 531 
Q 2325 219 2001 64 
Q 1678 -91 1281 -91 
Q 834 -91 548 182 
Q 263 456 263 884 
Q 263 1497 752 1853 
Q 1241 2209 2100 2209 
L 2900 2209 
L 2931 2363 
Q 2938 2388 2941 2417 
Q 2944 2447 2944 2509 
Q 2944 2788 2717 2942 
Q 2491 3097 2081 3097 
Q 1800 3097 1504 3025 
Q 1209 2953 897 2809 
L 997 3341 
Q 1322 3463 1633 3523 
Q 1944 3584 2234 3584 
Q 2853 3584 3176 3315 
Q 3500 3047 3500 2534 
Q 3500 2431 3484 2292 
Q 3469 2153 3438 1997 
z
M 2816 1759 
L 2241 1759 
Q 1534 1759 1195 1570 
Q 856 1381 856 984 
Q 856 709 1029 553 
Q 1203 397 1509 397 
Q 1978 397 2328 733 
Q 2678 1069 2791 1631 
L 2816 1759 
z
" transform="scale(0.015625)"/>
        <path id="DejaVuSans-Oblique-64" d="M 2675 525 
Q 2444 222 2128 65 
Q 1813 -91 1428 -91 
Q 903 -91 598 267 
Q 294 625 294 1247 
Q 294 1766 478 2236 
Q 663 2706 1013 3078 
Q 1244 3325 1534 3454 
Q 1825 3584 2144 3584 
Q 2481 3584 2739 3421 
Q 2997 3259 3138 2956 
L 3513 4863 
L 4091 4863 
L 3144 0 
L 2566 0 
L 2675 525 
z
M 891 1350 
Q 891 897 1095 644 
Q 1300 391 1663 391 
Q 1931 391 2161 520 
Q 2391 650 2566 903 
Q 2750 1166 2856 1509 
Q 2963 1853 2963 2188 
Q 2963 2622 2758 2865 
Q 2553 3109 2194 3109 
Q 1922 3109 1687 2981 
Q 1453 2853 1288 2613 
Q 1106 2353 998 2009 
Q 891 1666 891 1350 
z
" transform="scale(0.015625)"/>
        <path id="DejaVuSans-Oblique-74" d="M 2706 3500 
L 2619 3053 
L 1472 3053 
L 1100 1153 
Q 1081 1047 1072 975 
Q 1063 903 1063 863 
Q 1063 663 1183 572 
Q 1303 481 1569 481 
L 2150 481 
L 2053 0 
L 1503 0 
Q 991 0 739 200 
Q 488 400 488 806 
Q 488 878 497 964 
Q 506 1050 525 1153 
L 897 3053 
L 409 3053 
L 500 3500 
L 978 3500 
L 1172 4494 
L 1747 4494 
L 1556 3500 
L 2706 3500 
z
" transform="scale(0.015625)"/>
       </defs>
       <use xlink:href="#DejaVuSans-Oblique-43" transform="translate(0 0.015625)"/>
       <use xlink:href="#DejaVuSans-2e" transform="translate(69.824219 0.015625)"/>
       <use xlink:href="#DejaVuSans-Oblique-72" transform="translate(121.09375 0.015625)"/>
       <use xlink:href="#DejaVuSans-Oblique-65" transform="translate(162.207031 0.015625)"/>
       <use xlink:href="#DejaVuSans-Oblique-69" transform="translate(223.730469 0.015625)"/>
       <use xlink:href="#DejaVuSans-Oblique-6e" transform="translate(251.513672 0.015625)"/>
       <use xlink:href="#DejaVuSans-Oblique-68" transform="translate(314.892578 0.015625)"/>
       <use xlink:href="#DejaVuSans-Oblique-61" transform="translate(378.271484 0.015625)"/>
       <use xlink:href="#DejaVuSans-Oblique-72" transform="translate(439.550781 0.015625)"/>
       <use xlink:href="#DejaVuSans-Oblique-64" transform="translate(480.664062 0.015625)"/>
       <use xlink:href="#DejaVuSans-Oblique-74" transform="translate(544.140625 0.015625)"/>
       <use xlink:href="#DejaVuSans-Oblique-69" transform="translate(583.349609 0.015625)"/>
       <use xlink:href="#DejaVuSans-Oblique-69" transform="translate(611.132812 0.015625)"/>
      </g>
     </g>
    </g>
    <g id="xtick_3">
     <g id="line2d_3">
      <g>
       <use xlink:href="#m7513577890" x="357.221875" y="569.198438" style="fill: #262626; stroke: #262626; stroke-width: 0.8"/>
      </g>
     </g>
     <g id="text_3">
      <!-- $\it{E. texensis}$ -->
      <g style="fill: #262626" transform="translate(352.024238 590.478829) rotate(-340) scale(0.2 -0.2)">
       <defs>
        <path id="DejaVuSans-Oblique-45" d="M 1081 4666 
L 4031 4666 
L 3928 4134 
L 1606 4134 
L 1338 2753 
L 3566 2753 
L 3463 2222 
L 1234 2222 
L 909 531 
L 3284 531 
L 3181 0 
L 172 0 
L 1081 4666 
z
" transform="scale(0.015625)"/>
        <path id="DejaVuSans-Oblique-78" d="M 3841 3500 
L 2234 1784 
L 3219 0 
L 2559 0 
L 1819 1388 
L 531 0 
L -166 0 
L 1556 1844 
L 641 3500 
L 1300 3500 
L 1972 2234 
L 3144 3500 
L 3841 3500 
z
" transform="scale(0.015625)"/>
       </defs>
       <use xlink:href="#DejaVuSans-Oblique-45" transform="translate(0 0.015625)"/>
       <use xlink:href="#DejaVuSans-2e" transform="translate(63.183594 0.015625)"/>
       <use xlink:href="#DejaVuSans-Oblique-74" transform="translate(114.453125 0.015625)"/>
       <use xlink:href="#DejaVuSans-Oblique-65" transform="translate(153.662109 0.015625)"/>
       <use xlink:href="#DejaVuSans-Oblique-78" transform="translate(215.185547 0.015625)"/>
       <use xlink:href="#DejaVuSans-Oblique-65" transform="translate(274.365234 0.015625)"/>
       <use xlink:href="#DejaVuSans-Oblique-6e" transform="translate(335.888672 0.015625)"/>
       <use xlink:href="#DejaVuSans-Oblique-73" transform="translate(399.267578 0.015625)"/>
       <use xlink:href="#DejaVuSans-Oblique-69" transform="translate(451.367188 0.015625)"/>
       <use xlink:href="#DejaVuSans-Oblique-73" transform="translate(479.150391 0.015625)"/>
      </g>
     </g>
    </g>
    <g id="xtick_4">
     <g id="line2d_4">
      <g>
       <use xlink:href="#m7513577890" x="468.821875" y="569.198438" style="fill: #262626; stroke: #262626; stroke-width: 0.8"/>
      </g>
     </g>
     <g id="text_4">
      <!-- $\it{T. albertanoae}$ -->
      <g style="fill: #262626" transform="translate(463.624238 590.478829) rotate(-340) scale(0.2 -0.2)">
       <defs>
        <path id="DejaVuSans-Oblique-54" d="M 378 4666 
L 4325 4666 
L 4225 4134 
L 2559 4134 
L 1759 0 
L 1125 0 
L 1925 4134 
L 275 4134 
L 378 4666 
z
" transform="scale(0.015625)"/>
       </defs>
       <use xlink:href="#DejaVuSans-Oblique-54" transform="translate(0 0.015625)"/>
       <use xlink:href="#DejaVuSans-2e" transform="translate(61.083984 0.015625)"/>
       <use xlink:href="#DejaVuSans-Oblique-61" transform="translate(112.353516 0.015625)"/>
       <use xlink:href="#DejaVuSans-Oblique-6c" transform="translate(173.632812 0.015625)"/>
       <use xlink:href="#DejaVuSans-Oblique-62" transform="translate(201.416016 0.015625)"/>
       <use xlink:href="#DejaVuSans-Oblique-65" transform="translate(264.892578 0.015625)"/>
       <use xlink:href="#DejaVuSans-Oblique-72" transform="translate(326.416016 0.015625)"/>
       <use xlink:href="#DejaVuSans-Oblique-74" transform="translate(367.529297 0.015625)"/>
       <use xlink:href="#DejaVuSans-Oblique-61" transform="translate(406.738281 0.015625)"/>
       <use xlink:href="#DejaVuSans-Oblique-6e" transform="translate(468.017578 0.015625)"/>
       <use xlink:href="#DejaVuSans-Oblique-6f" transform="translate(531.396484 0.015625)"/>
       <use xlink:href="#DejaVuSans-Oblique-61" transform="translate(592.578125 0.015625)"/>
       <use xlink:href="#DejaVuSans-Oblique-65" transform="translate(653.857422 0.015625)"/>
      </g>
     </g>
    </g>
    <g id="xtick_5">
     <g id="line2d_5">
      <g>
       <use xlink:href="#m7513577890" x="580.421875" y="569.198438" style="fill: #262626; stroke: #262626; stroke-width: 0.8"/>
      </g>
     </g>
     <g id="text_5">
      <!-- $\bf{MBC}$ -->
      <g style="fill: #262626" transform="translate(575.224238 590.478829) rotate(-340) scale(0.2 -0.2)">
       <defs>
        <path id="DejaVuSans-Bold-4d" d="M 588 4666 
L 2119 4666 
L 3181 2169 
L 4250 4666 
L 5778 4666 
L 5778 0 
L 4641 0 
L 4641 3413 
L 3566 897 
L 2803 897 
L 1728 3413 
L 1728 0 
L 588 0 
L 588 4666 
z
" transform="scale(0.015625)"/>
        <path id="DejaVuSans-Bold-42" d="M 2456 2859 
Q 2741 2859 2887 2984 
Q 3034 3109 3034 3353 
Q 3034 3594 2887 3720 
Q 2741 3847 2456 3847 
L 1791 3847 
L 1791 2859 
L 2456 2859 
z
M 2497 819 
Q 2859 819 3042 972 
Q 3225 1125 3225 1434 
Q 3225 1738 3044 1889 
Q 2863 2041 2497 2041 
L 1791 2041 
L 1791 819 
L 2497 819 
z
M 3616 2497 
Q 4003 2384 4215 2081 
Q 4428 1778 4428 1338 
Q 4428 663 3972 331 
Q 3516 0 2584 0 
L 588 0 
L 588 4666 
L 2394 4666 
Q 3366 4666 3802 4372 
Q 4238 4078 4238 3431 
Q 4238 3091 4078 2852 
Q 3919 2613 3616 2497 
z
" transform="scale(0.015625)"/>
        <path id="DejaVuSans-Bold-43" d="M 4288 256 
Q 3956 84 3597 -3 
Q 3238 -91 2847 -91 
Q 1681 -91 1000 561 
Q 319 1213 319 2328 
Q 319 3447 1000 4098 
Q 1681 4750 2847 4750 
Q 3238 4750 3597 4662 
Q 3956 4575 4288 4403 
L 4288 3438 
Q 3953 3666 3628 3772 
Q 3303 3878 2944 3878 
Q 2300 3878 1931 3465 
Q 1563 3053 1563 2328 
Q 1563 1606 1931 1193 
Q 2300 781 2944 781 
Q 3303 781 3628 887 
Q 3953 994 4288 1222 
L 4288 256 
z
" transform="scale(0.015625)"/>
       </defs>
       <use xlink:href="#DejaVuSans-Bold-4d" transform="translate(0 0.78125)"/>
       <use xlink:href="#DejaVuSans-Bold-42" transform="translate(99.511719 0.78125)"/>
       <use xlink:href="#DejaVuSans-Bold-43" transform="translate(175.732422 0.78125)"/>
      </g>
     </g>
    </g>
   </g>
   <g id="matplotlib.axis_2">
    <g id="ytick_1">
     <g id="line2d_6">
      <path d="M 78.221875 569.198438 
L 636.221875 569.198438 
" clip-path="url(#pd9d1dd3a6f)" style="fill: none; stroke: #cccccc; stroke-width: 0.8; stroke-linecap: round"/>
     </g>
     <g id="line2d_7">
      <defs>
       <path id="mba131fcc54" d="M 0 0 
L -3.5 0 
" style="stroke: #262626; stroke-width: 0.8"/>
      </defs>
      <g>
       <use xlink:href="#mba131fcc54" x="78.221875" y="569.198438" style="fill: #262626; stroke: #262626; stroke-width: 0.8"/>
      </g>
     </g>
     <g id="text_6">
      <!-- -45 -->
      <g style="fill: #262626" transform="translate(38.55625 576.796875) scale(0.2 -0.2)">
       <defs>
        <path id="DejaVuSans-2d" d="M 313 2009 
L 1997 2009 
L 1997 1497 
L 313 1497 
L 313 2009 
z
" transform="scale(0.015625)"/>
        <path id="DejaVuSans-34" d="M 2419 4116 
L 825 1625 
L 2419 1625 
L 2419 4116 
z
M 2253 4666 
L 3047 4666 
L 3047 1625 
L 3713 1625 
L 3713 1100 
L 3047 1100 
L 3047 0 
L 2419 0 
L 2419 1100 
L 313 1100 
L 313 1709 
L 2253 4666 
z
" transform="scale(0.015625)"/>
        <path id="DejaVuSans-35" d="M 691 4666 
L 3169 4666 
L 3169 4134 
L 1269 4134 
L 1269 2991 
Q 1406 3038 1543 3061 
Q 1681 3084 1819 3084 
Q 2600 3084 3056 2656 
Q 3513 2228 3513 1497 
Q 3513 744 3044 326 
Q 2575 -91 1722 -91 
Q 1428 -91 1123 -41 
Q 819 9 494 109 
L 494 744 
Q 775 591 1075 516 
Q 1375 441 1709 441 
Q 2250 441 2565 725 
Q 2881 1009 2881 1497 
Q 2881 1984 2565 2268 
Q 2250 2553 1709 2553 
Q 1456 2553 1204 2497 
Q 953 2441 691 2322 
L 691 4666 
z
" transform="scale(0.015625)"/>
       </defs>
       <use xlink:href="#DejaVuSans-2d"/>
       <use xlink:href="#DejaVuSans-34" x="36.083984"/>
       <use xlink:href="#DejaVuSans-35" x="99.707031"/>
      </g>
     </g>
    </g>
    <g id="ytick_2">
     <g id="line2d_8">
      <path d="M 78.221875 513.758438 
L 636.221875 513.758438 
" clip-path="url(#pd9d1dd3a6f)" style="fill: none; stroke: #cccccc; stroke-width: 0.8; stroke-linecap: round"/>
     </g>
     <g id="line2d_9">
      <g>
       <use xlink:href="#mba131fcc54" x="78.221875" y="513.758438" style="fill: #262626; stroke: #262626; stroke-width: 0.8"/>
      </g>
     </g>
     <g id="text_7">
      <!-- -40 -->
      <g style="fill: #262626" transform="translate(38.55625 521.356875) scale(0.2 -0.2)">
       <defs>
        <path id="DejaVuSans-30" d="M 2034 4250 
Q 1547 4250 1301 3770 
Q 1056 3291 1056 2328 
Q 1056 1369 1301 889 
Q 1547 409 2034 409 
Q 2525 409 2770 889 
Q 3016 1369 3016 2328 
Q 3016 3291 2770 3770 
Q 2525 4250 2034 4250 
z
M 2034 4750 
Q 2819 4750 3233 4129 
Q 3647 3509 3647 2328 
Q 3647 1150 3233 529 
Q 2819 -91 2034 -91 
Q 1250 -91 836 529 
Q 422 1150 422 2328 
Q 422 3509 836 4129 
Q 1250 4750 2034 4750 
z
" transform="scale(0.015625)"/>
       </defs>
       <use xlink:href="#DejaVuSans-2d"/>
       <use xlink:href="#DejaVuSans-34" x="36.083984"/>
       <use xlink:href="#DejaVuSans-30" x="99.707031"/>
      </g>
     </g>
    </g>
    <g id="ytick_3">
     <g id="line2d_10">
      <path d="M 78.221875 458.318438 
L 636.221875 458.318438 
" clip-path="url(#pd9d1dd3a6f)" style="fill: none; stroke: #cccccc; stroke-width: 0.8; stroke-linecap: round"/>
     </g>
     <g id="line2d_11">
      <g>
       <use xlink:href="#mba131fcc54" x="78.221875" y="458.318438" style="fill: #262626; stroke: #262626; stroke-width: 0.8"/>
      </g>
     </g>
     <g id="text_8">
      <!-- -35 -->
      <g style="fill: #262626" transform="translate(38.55625 465.916875) scale(0.2 -0.2)">
       <defs>
        <path id="DejaVuSans-33" d="M 2597 2516 
Q 3050 2419 3304 2112 
Q 3559 1806 3559 1356 
Q 3559 666 3084 287 
Q 2609 -91 1734 -91 
Q 1441 -91 1130 -33 
Q 819 25 488 141 
L 488 750 
Q 750 597 1062 519 
Q 1375 441 1716 441 
Q 2309 441 2620 675 
Q 2931 909 2931 1356 
Q 2931 1769 2642 2001 
Q 2353 2234 1838 2234 
L 1294 2234 
L 1294 2753 
L 1863 2753 
Q 2328 2753 2575 2939 
Q 2822 3125 2822 3475 
Q 2822 3834 2567 4026 
Q 2313 4219 1838 4219 
Q 1578 4219 1281 4162 
Q 984 4106 628 3988 
L 628 4550 
Q 988 4650 1302 4700 
Q 1616 4750 1894 4750 
Q 2613 4750 3031 4423 
Q 3450 4097 3450 3541 
Q 3450 3153 3228 2886 
Q 3006 2619 2597 2516 
z
" transform="scale(0.015625)"/>
       </defs>
       <use xlink:href="#DejaVuSans-2d"/>
       <use xlink:href="#DejaVuSans-33" x="36.083984"/>
       <use xlink:href="#DejaVuSans-35" x="99.707031"/>
      </g>
     </g>
    </g>
    <g id="ytick_4">
     <g id="line2d_12">
      <path d="M 78.221875 402.878438 
L 636.221875 402.878438 
" clip-path="url(#pd9d1dd3a6f)" style="fill: none; stroke: #cccccc; stroke-width: 0.8; stroke-linecap: round"/>
     </g>
     <g id="line2d_13">
      <g>
       <use xlink:href="#mba131fcc54" x="78.221875" y="402.878438" style="fill: #262626; stroke: #262626; stroke-width: 0.8"/>
      </g>
     </g>
     <g id="text_9">
      <!-- -30 -->
      <g style="fill: #262626" transform="translate(38.55625 410.476875) scale(0.2 -0.2)">
       <use xlink:href="#DejaVuSans-2d"/>
       <use xlink:href="#DejaVuSans-33" x="36.083984"/>
       <use xlink:href="#DejaVuSans-30" x="99.707031"/>
      </g>
     </g>
    </g>
    <g id="ytick_5">
     <g id="line2d_14">
      <path d="M 78.221875 347.438438 
L 636.221875 347.438438 
" clip-path="url(#pd9d1dd3a6f)" style="fill: none; stroke: #cccccc; stroke-width: 0.8; stroke-linecap: round"/>
     </g>
     <g id="line2d_15">
      <g>
       <use xlink:href="#mba131fcc54" x="78.221875" y="347.438438" style="fill: #262626; stroke: #262626; stroke-width: 0.8"/>
      </g>
     </g>
     <g id="text_10">
      <!-- -25 -->
      <g style="fill: #262626" transform="translate(38.55625 355.036875) scale(0.2 -0.2)">
       <defs>
        <path id="DejaVuSans-32" d="M 1228 531 
L 3431 531 
L 3431 0 
L 469 0 
L 469 531 
Q 828 903 1448 1529 
Q 2069 2156 2228 2338 
Q 2531 2678 2651 2914 
Q 2772 3150 2772 3378 
Q 2772 3750 2511 3984 
Q 2250 4219 1831 4219 
Q 1534 4219 1204 4116 
Q 875 4013 500 3803 
L 500 4441 
Q 881 4594 1212 4672 
Q 1544 4750 1819 4750 
Q 2544 4750 2975 4387 
Q 3406 4025 3406 3419 
Q 3406 3131 3298 2873 
Q 3191 2616 2906 2266 
Q 2828 2175 2409 1742 
Q 1991 1309 1228 531 
z
" transform="scale(0.015625)"/>
       </defs>
       <use xlink:href="#DejaVuSans-2d"/>
       <use xlink:href="#DejaVuSans-32" x="36.083984"/>
       <use xlink:href="#DejaVuSans-35" x="99.707031"/>
      </g>
     </g>
    </g>
    <g id="ytick_6">
     <g id="line2d_16">
      <path d="M 78.221875 291.998438 
L 636.221875 291.998438 
" clip-path="url(#pd9d1dd3a6f)" style="fill: none; stroke: #cccccc; stroke-width: 0.8; stroke-linecap: round"/>
     </g>
     <g id="line2d_17">
      <g>
       <use xlink:href="#mba131fcc54" x="78.221875" y="291.998438" style="fill: #262626; stroke: #262626; stroke-width: 0.8"/>
      </g>
     </g>
     <g id="text_11">
      <!-- -20 -->
      <g style="fill: #262626" transform="translate(38.55625 299.596875) scale(0.2 -0.2)">
       <use xlink:href="#DejaVuSans-2d"/>
       <use xlink:href="#DejaVuSans-32" x="36.083984"/>
       <use xlink:href="#DejaVuSans-30" x="99.707031"/>
      </g>
     </g>
    </g>
    <g id="ytick_7">
     <g id="line2d_18">
      <path d="M 78.221875 236.558438 
L 636.221875 236.558438 
" clip-path="url(#pd9d1dd3a6f)" style="fill: none; stroke: #cccccc; stroke-width: 0.8; stroke-linecap: round"/>
     </g>
     <g id="line2d_19">
      <g>
       <use xlink:href="#mba131fcc54" x="78.221875" y="236.558438" style="fill: #262626; stroke: #262626; stroke-width: 0.8"/>
      </g>
     </g>
     <g id="text_12">
      <!-- -15 -->
      <g style="fill: #262626" transform="translate(38.55625 244.156875) scale(0.2 -0.2)">
       <defs>
        <path id="DejaVuSans-31" d="M 794 531 
L 1825 531 
L 1825 4091 
L 703 3866 
L 703 4441 
L 1819 4666 
L 2450 4666 
L 2450 531 
L 3481 531 
L 3481 0 
L 794 0 
L 794 531 
z
" transform="scale(0.015625)"/>
       </defs>
       <use xlink:href="#DejaVuSans-2d"/>
       <use xlink:href="#DejaVuSans-31" x="36.083984"/>
       <use xlink:href="#DejaVuSans-35" x="99.707031"/>
      </g>
     </g>
    </g>
    <g id="ytick_8">
     <g id="line2d_20">
      <path d="M 78.221875 181.118438 
L 636.221875 181.118438 
" clip-path="url(#pd9d1dd3a6f)" style="fill: none; stroke: #cccccc; stroke-width: 0.8; stroke-linecap: round"/>
     </g>
     <g id="line2d_21">
      <g>
       <use xlink:href="#mba131fcc54" x="78.221875" y="181.118438" style="fill: #262626; stroke: #262626; stroke-width: 0.8"/>
      </g>
     </g>
     <g id="text_13">
      <!-- -10 -->
      <g style="fill: #262626" transform="translate(38.55625 188.716875) scale(0.2 -0.2)">
       <use xlink:href="#DejaVuSans-2d"/>
       <use xlink:href="#DejaVuSans-31" x="36.083984"/>
       <use xlink:href="#DejaVuSans-30" x="99.707031"/>
      </g>
     </g>
    </g>
    <g id="ytick_9">
     <g id="line2d_22">
      <path d="M 78.221875 125.678438 
L 636.221875 125.678438 
" clip-path="url(#pd9d1dd3a6f)" style="fill: none; stroke: #cccccc; stroke-width: 0.8; stroke-linecap: round"/>
     </g>
     <g id="line2d_23">
      <g>
       <use xlink:href="#mba131fcc54" x="78.221875" y="125.678438" style="fill: #262626; stroke: #262626; stroke-width: 0.8"/>
      </g>
     </g>
     <g id="text_14">
      <!-- -5 -->
      <g style="fill: #262626" transform="translate(51.28125 133.276875) scale(0.2 -0.2)">
       <use xlink:href="#DejaVuSans-2d"/>
       <use xlink:href="#DejaVuSans-35" x="36.083984"/>
      </g>
     </g>
    </g>
    <g id="ytick_10">
     <g id="line2d_24">
      <path d="M 78.221875 70.238438 
L 636.221875 70.238438 
" clip-path="url(#pd9d1dd3a6f)" style="fill: none; stroke: #cccccc; stroke-width: 0.8; stroke-linecap: round"/>
     </g>
     <g id="line2d_25">
      <g>
       <use xlink:href="#mba131fcc54" x="78.221875" y="70.238438" style="fill: #262626; stroke: #262626; stroke-width: 0.8"/>
      </g>
     </g>
     <g id="text_15">
      <!-- 0 -->
      <g style="fill: #262626" transform="translate(58.496875 77.836875) scale(0.2 -0.2)">
       <use xlink:href="#DejaVuSans-30"/>
      </g>
     </g>
    </g>
    <g id="ytick_11">
     <g id="line2d_26">
      <path d="M 78.221875 14.798438 
L 636.221875 14.798438 
" clip-path="url(#pd9d1dd3a6f)" style="fill: none; stroke: #cccccc; stroke-width: 0.8; stroke-linecap: round"/>
     </g>
     <g id="line2d_27">
      <g>
       <use xlink:href="#mba131fcc54" x="78.221875" y="14.798438" style="fill: #262626; stroke: #262626; stroke-width: 0.8"/>
      </g>
     </g>
     <g id="text_16">
      <!-- 5 -->
      <g style="fill: #262626" transform="translate(58.496875 22.396875) scale(0.2 -0.2)">
       <use xlink:href="#DejaVuSans-35"/>
      </g>
     </g>
    </g>
    <g id="text_17">
     <!-- Zeta Potential [mV] -->
     <g style="fill: #262626" transform="translate(22.396875 389.592188) rotate(-90) scale(0.2 -0.2)">
      <defs>
       <path id="DejaVuSans-5a" d="M 359 4666 
L 4025 4666 
L 4025 4184 
L 1075 531 
L 4097 531 
L 4097 0 
L 288 0 
L 288 481 
L 3238 4134 
L 359 4134 
L 359 4666 
z
" transform="scale(0.015625)"/>
       <path id="DejaVuSans-65" d="M 3597 1894 
L 3597 1613 
L 953 1613 
Q 991 1019 1311 708 
Q 1631 397 2203 397 
Q 2534 397 2845 478 
Q 3156 559 3463 722 
L 3463 178 
Q 3153 47 2828 -22 
Q 2503 -91 2169 -91 
Q 1331 -91 842 396 
Q 353 884 353 1716 
Q 353 2575 817 3079 
Q 1281 3584 2069 3584 
Q 2775 3584 3186 3129 
Q 3597 2675 3597 1894 
z
M 3022 2063 
Q 3016 2534 2758 2815 
Q 2500 3097 2075 3097 
Q 1594 3097 1305 2825 
Q 1016 2553 972 2059 
L 3022 2063 
z
" transform="scale(0.015625)"/>
       <path id="DejaVuSans-74" d="M 1172 4494 
L 1172 3500 
L 2356 3500 
L 2356 3053 
L 1172 3053 
L 1172 1153 
Q 1172 725 1289 603 
Q 1406 481 1766 481 
L 2356 481 
L 2356 0 
L 1766 0 
Q 1100 0 847 248 
Q 594 497 594 1153 
L 594 3053 
L 172 3053 
L 172 3500 
L 594 3500 
L 594 4494 
L 1172 4494 
z
" transform="scale(0.015625)"/>
       <path id="DejaVuSans-61" d="M 2194 1759 
Q 1497 1759 1228 1600 
Q 959 1441 959 1056 
Q 959 750 1161 570 
Q 1363 391 1709 391 
Q 2188 391 2477 730 
Q 2766 1069 2766 1631 
L 2766 1759 
L 2194 1759 
z
M 3341 1997 
L 3341 0 
L 2766 0 
L 2766 531 
Q 2569 213 2275 61 
Q 1981 -91 1556 -91 
Q 1019 -91 701 211 
Q 384 513 384 1019 
Q 384 1609 779 1909 
Q 1175 2209 1959 2209 
L 2766 2209 
L 2766 2266 
Q 2766 2663 2505 2880 
Q 2244 3097 1772 3097 
Q 1472 3097 1187 3025 
Q 903 2953 641 2809 
L 641 3341 
Q 956 3463 1253 3523 
Q 1550 3584 1831 3584 
Q 2591 3584 2966 3190 
Q 3341 2797 3341 1997 
z
" transform="scale(0.015625)"/>
       <path id="DejaVuSans-20" transform="scale(0.015625)"/>
       <path id="DejaVuSans-50" d="M 1259 4147 
L 1259 2394 
L 2053 2394 
Q 2494 2394 2734 2622 
Q 2975 2850 2975 3272 
Q 2975 3691 2734 3919 
Q 2494 4147 2053 4147 
L 1259 4147 
z
M 628 4666 
L 2053 4666 
Q 2838 4666 3239 4311 
Q 3641 3956 3641 3272 
Q 3641 2581 3239 2228 
Q 2838 1875 2053 1875 
L 1259 1875 
L 1259 0 
L 628 0 
L 628 4666 
z
" transform="scale(0.015625)"/>
       <path id="DejaVuSans-6f" d="M 1959 3097 
Q 1497 3097 1228 2736 
Q 959 2375 959 1747 
Q 959 1119 1226 758 
Q 1494 397 1959 397 
Q 2419 397 2687 759 
Q 2956 1122 2956 1747 
Q 2956 2369 2687 2733 
Q 2419 3097 1959 3097 
z
M 1959 3584 
Q 2709 3584 3137 3096 
Q 3566 2609 3566 1747 
Q 3566 888 3137 398 
Q 2709 -91 1959 -91 
Q 1206 -91 779 398 
Q 353 888 353 1747 
Q 353 2609 779 3096 
Q 1206 3584 1959 3584 
z
" transform="scale(0.015625)"/>
       <path id="DejaVuSans-6e" d="M 3513 2113 
L 3513 0 
L 2938 0 
L 2938 2094 
Q 2938 2591 2744 2837 
Q 2550 3084 2163 3084 
Q 1697 3084 1428 2787 
Q 1159 2491 1159 1978 
L 1159 0 
L 581 0 
L 581 3500 
L 1159 3500 
L 1159 2956 
Q 1366 3272 1645 3428 
Q 1925 3584 2291 3584 
Q 2894 3584 3203 3211 
Q 3513 2838 3513 2113 
z
" transform="scale(0.015625)"/>
       <path id="DejaVuSans-69" d="M 603 3500 
L 1178 3500 
L 1178 0 
L 603 0 
L 603 3500 
z
M 603 4863 
L 1178 4863 
L 1178 4134 
L 603 4134 
L 603 4863 
z
" transform="scale(0.015625)"/>
       <path id="DejaVuSans-6c" d="M 603 4863 
L 1178 4863 
L 1178 0 
L 603 0 
L 603 4863 
z
" transform="scale(0.015625)"/>
       <path id="DejaVuSans-5b" d="M 550 4863 
L 1875 4863 
L 1875 4416 
L 1125 4416 
L 1125 -397 
L 1875 -397 
L 1875 -844 
L 550 -844 
L 550 4863 
z
" transform="scale(0.015625)"/>
       <path id="DejaVuSans-6d" d="M 3328 2828 
Q 3544 3216 3844 3400 
Q 4144 3584 4550 3584 
Q 5097 3584 5394 3201 
Q 5691 2819 5691 2113 
L 5691 0 
L 5113 0 
L 5113 2094 
Q 5113 2597 4934 2840 
Q 4756 3084 4391 3084 
Q 3944 3084 3684 2787 
Q 3425 2491 3425 1978 
L 3425 0 
L 2847 0 
L 2847 2094 
Q 2847 2600 2669 2842 
Q 2491 3084 2119 3084 
Q 1678 3084 1418 2786 
Q 1159 2488 1159 1978 
L 1159 0 
L 581 0 
L 581 3500 
L 1159 3500 
L 1159 2956 
Q 1356 3278 1631 3431 
Q 1906 3584 2284 3584 
Q 2666 3584 2933 3390 
Q 3200 3197 3328 2828 
z
" transform="scale(0.015625)"/>
       <path id="DejaVuSans-56" d="M 1831 0 
L 50 4666 
L 709 4666 
L 2188 738 
L 3669 4666 
L 4325 4666 
L 2547 0 
L 1831 0 
z
" transform="scale(0.015625)"/>
       <path id="DejaVuSans-5d" d="M 1947 4863 
L 1947 -844 
L 622 -844 
L 622 -397 
L 1369 -397 
L 1369 4416 
L 622 4416 
L 622 4863 
L 1947 4863 
z
" transform="scale(0.015625)"/>
      </defs>
      <use xlink:href="#DejaVuSans-5a"/>
      <use xlink:href="#DejaVuSans-65" x="68.505859"/>
      <use xlink:href="#DejaVuSans-74" x="130.029297"/>
      <use xlink:href="#DejaVuSans-61" x="169.238281"/>
      <use xlink:href="#DejaVuSans-20" x="230.517578"/>
      <use xlink:href="#DejaVuSans-50" x="262.304688"/>
      <use xlink:href="#DejaVuSans-6f" x="318.982422"/>
      <use xlink:href="#DejaVuSans-74" x="380.164062"/>
      <use xlink:href="#DejaVuSans-65" x="419.373047"/>
      <use xlink:href="#DejaVuSans-6e" x="480.896484"/>
      <use xlink:href="#DejaVuSans-74" x="544.275391"/>
      <use xlink:href="#DejaVuSans-69" x="583.484375"/>
      <use xlink:href="#DejaVuSans-61" x="611.267578"/>
      <use xlink:href="#DejaVuSans-6c" x="672.546875"/>
      <use xlink:href="#DejaVuSans-20" x="700.330078"/>
      <use xlink:href="#DejaVuSans-5b" x="732.117188"/>
      <use xlink:href="#DejaVuSans-6d" x="771.130859"/>
      <use xlink:href="#DejaVuSans-56" x="868.542969"/>
      <use xlink:href="#DejaVuSans-5d" x="936.951172"/>
     </g>
    </g>
   </g>
   <g id="patch_3">
    <path d="M 89.381875 278.692838 
L 178.661875 278.692838 
L 178.661875 252.081638 
L 89.381875 252.081638 
L 89.381875 278.692838 
z
" clip-path="url(#pd9d1dd3a6f)" style="fill: #dcdcdc; stroke: #000000; stroke-linejoin: miter"/>
   </g>
   <g id="line2d_28">
    <path d="M 134.021875 278.692838 
L 134.021875 289.780838 
" clip-path="url(#pd9d1dd3a6f)" style="fill: none; stroke: #000000"/>
   </g>
   <g id="line2d_29">
    <path d="M 134.021875 252.081638 
L 134.021875 244.320038 
" clip-path="url(#pd9d1dd3a6f)" style="fill: none; stroke: #000000"/>
   </g>
   <g id="line2d_30">
    <path d="M 111.701875 289.780838 
L 156.341875 289.780838 
" clip-path="url(#pd9d1dd3a6f)" style="fill: none; stroke: #000000; stroke-linecap: round"/>
   </g>
   <g id="line2d_31">
    <path d="M 111.701875 244.320038 
L 156.341875 244.320038 
" clip-path="url(#pd9d1dd3a6f)" style="fill: none; stroke: #000000; stroke-linecap: round"/>
   </g>
   <g id="line2d_32"/>
   <g id="patch_4">
    <path d="M 200.981875 316.392038 
L 290.261875 316.392038 
L 290.261875 303.086438 
L 200.981875 303.086438 
L 200.981875 316.392038 
z
" clip-path="url(#pd9d1dd3a6f)" style="fill: #dcdcdc; stroke: #000000; stroke-linejoin: miter"/>
   </g>
   <g id="line2d_33">
    <path d="M 245.621875 316.392038 
L 245.621875 319.718438 
" clip-path="url(#pd9d1dd3a6f)" style="fill: none; stroke: #000000"/>
   </g>
   <g id="line2d_34">
    <path d="M 245.621875 303.086438 
L 245.621875 297.542438 
" clip-path="url(#pd9d1dd3a6f)" style="fill: none; stroke: #000000"/>
   </g>
   <g id="line2d_35">
    <path d="M 223.301875 319.718438 
L 267.941875 319.718438 
" clip-path="url(#pd9d1dd3a6f)" style="fill: none; stroke: #000000; stroke-linecap: round"/>
   </g>
   <g id="line2d_36">
    <path d="M 223.301875 297.542438 
L 267.941875 297.542438 
" clip-path="url(#pd9d1dd3a6f)" style="fill: none; stroke: #000000; stroke-linecap: round"/>
   </g>
   <g id="line2d_37"/>
   <g id="patch_5">
    <path d="M 312.581875 288.672038 
L 401.861875 288.672038 
L 401.861875 274.257638 
L 312.581875 274.257638 
L 312.581875 288.672038 
z
" clip-path="url(#pd9d1dd3a6f)" style="fill: #dcdcdc; stroke: #000000; stroke-linejoin: miter"/>
   </g>
   <g id="line2d_38">
    <path d="M 357.221875 288.672038 
L 357.221875 299.760038 
" clip-path="url(#pd9d1dd3a6f)" style="fill: none; stroke: #000000"/>
   </g>
   <g id="line2d_39">
    <path d="M 357.221875 274.257638 
L 357.221875 255.408038 
" clip-path="url(#pd9d1dd3a6f)" style="fill: none; stroke: #000000"/>
   </g>
   <g id="line2d_40">
    <path d="M 334.901875 299.760038 
L 379.541875 299.760038 
" clip-path="url(#pd9d1dd3a6f)" style="fill: none; stroke: #000000; stroke-linecap: round"/>
   </g>
   <g id="line2d_41">
    <path d="M 334.901875 255.408038 
L 379.541875 255.408038 
" clip-path="url(#pd9d1dd3a6f)" style="fill: none; stroke: #000000; stroke-linecap: round"/>
   </g>
   <g id="line2d_42"/>
   <g id="patch_6">
    <path d="M 424.181875 381.811238 
L 513.461875 381.811238 
L 513.461875 347.438438 
L 424.181875 347.438438 
L 424.181875 381.811238 
z
" clip-path="url(#pd9d1dd3a6f)" style="fill: #dcdcdc; stroke: #000000; stroke-linejoin: miter"/>
   </g>
   <g id="line2d_43">
    <path d="M 468.821875 381.811238 
L 468.821875 408.422438 
" clip-path="url(#pd9d1dd3a6f)" style="fill: none; stroke: #000000"/>
   </g>
   <g id="line2d_44">
    <path d="M 468.821875 347.438438 
L 468.821875 345.220838 
" clip-path="url(#pd9d1dd3a6f)" style="fill: none; stroke: #000000"/>
   </g>
   <g id="line2d_45">
    <path d="M 446.501875 408.422438 
L 491.141875 408.422438 
" clip-path="url(#pd9d1dd3a6f)" style="fill: none; stroke: #000000; stroke-linecap: round"/>
   </g>
   <g id="line2d_46">
    <path d="M 446.501875 345.220838 
L 491.141875 345.220838 
" clip-path="url(#pd9d1dd3a6f)" style="fill: none; stroke: #000000; stroke-linecap: round"/>
   </g>
   <g id="line2d_47"/>
   <g id="patch_7">
    <path d="M 535.781875 379.593638 
L 625.061875 379.593638 
L 625.061875 244.320038 
L 535.781875 244.320038 
L 535.781875 379.593638 
z
" clip-path="url(#pd9d1dd3a6f)" style="fill: #dcdcdc; stroke: #000000; stroke-linejoin: miter"/>
   </g>
   <g id="line2d_48">
    <path d="M 580.421875 379.593638 
L 580.421875 429.489638 
" clip-path="url(#pd9d1dd3a6f)" style="fill: none; stroke: #000000"/>
   </g>
   <g id="line2d_49">
    <path d="M 580.421875 244.320038 
L 580.421875 215.491238 
" clip-path="url(#pd9d1dd3a6f)" style="fill: none; stroke: #000000"/>
   </g>
   <g id="line2d_50">
    <path d="M 558.101875 429.489638 
L 602.741875 429.489638 
" clip-path="url(#pd9d1dd3a6f)" style="fill: none; stroke: #000000; stroke-linecap: round"/>
   </g>
   <g id="line2d_51">
    <path d="M 558.101875 215.491238 
L 602.741875 215.491238 
" clip-path="url(#pd9d1dd3a6f)" style="fill: none; stroke: #000000; stroke-linecap: round"/>
   </g>
   <g id="line2d_52"/>
   <g id="line2d_53">
    <path d="M 89.381875 263.169638 
L 178.661875 263.169638 
" clip-path="url(#pd9d1dd3a6f)" style="fill: none; stroke: #000000"/>
   </g>
   <g id="line2d_54">
    <path d="M 200.981875 305.304038 
L 290.261875 305.304038 
" clip-path="url(#pd9d1dd3a6f)" style="fill: none; stroke: #000000"/>
   </g>
   <g id="line2d_55">
    <path d="M 312.581875 279.801638 
L 401.861875 279.801638 
" clip-path="url(#pd9d1dd3a6f)" style="fill: none; stroke: #000000"/>
   </g>
   <g id="line2d_56">
    <path d="M 424.181875 374.049638 
L 513.461875 374.049638 
" clip-path="url(#pd9d1dd3a6f)" style="fill: none; stroke: #000000"/>
   </g>
   <g id="line2d_57">
    <path d="M 535.781875 279.801638 
L 625.061875 279.801638 
" clip-path="url(#pd9d1dd3a6f)" style="fill: none; stroke: #000000"/>
   </g>
   <g id="patch_8">
    <path d="M 78.221875 569.198438 
L 78.221875 14.798438 
" style="fill: none; stroke: #262626; stroke-width: 0.8; stroke-linejoin: miter; stroke-linecap: square"/>
   </g>
   <g id="patch_9">
    <path d="M 636.221875 569.198438 
L 636.221875 14.798438 
" style="fill: none; stroke: #262626; stroke-width: 0.8; stroke-linejoin: miter; stroke-linecap: square"/>
   </g>
   <g id="patch_10">
    <path d="M 78.221875 569.198438 
L 636.221875 569.198438 
" style="fill: none; stroke: #262626; stroke-width: 0.8; stroke-linejoin: miter; stroke-linecap: square"/>
   </g>
   <g id="patch_11">
    <path d="M 78.221875 14.798438 
L 636.221875 14.798438 
" style="fill: none; stroke: #262626; stroke-width: 0.8; stroke-linejoin: miter; stroke-linecap: square"/>
   </g>
   <g id="legend_1"/>
  </g>
 </g>
 <defs>
  <clipPath id="pd9d1dd3a6f">
   <rect x="78.221875" y="14.798438" width="558" height="554.4"/>
  </clipPath>
 </defs>
</svg>
